PathFileType	4	(X/Y/Z)	D:\Share\Shared_Data\Ergonomics\Sit To Stand Pertubation\S2\Perturbed.trc
DataRate	CameraRate	NumFrames	NumMarkers	Units	OrigDataRate	OrigDataStartFrame	OrigNumFrames	
100	100	11	18	m	100	18584	191
Frame#	Time	R_Toe			R_ASIS			R_Pelvis			V_Sacral			L_Pelvis			L_ASIS			Clavical			R_Acromium			L_Acromium			Sternum			Torso			R_Thigh_Med			R_Thigh_Lat			R_Thigh			R_Shank_Med			R_Shank_Lat			R_Shank			R_Heel			
		X1	Y1	Z1	X2	Y2	Z2	X3	Y3	Z3	X4	Y4	Z4	X5	Y5	Z5	X6	Y6	Z6	X7	Y7	Z7	X8	Y8	Z8	X9	Y9	Z9	X10	Y10	Z10	X11	Y11	Z11	X12	Y12	Z12	X13	Y13	Z13	X14	Y14	Z14	X15	Y15	Z15	X16	Y16	Z16	X17	Y17	Z17	X18	Y18	Z18	

18584	185.83	0.41578534	0.066624962	0.13686871	-0.083851105	0.64241809	0.11970627	-0.16753801	0.64107758	0.15923851	-0.30688461	0.57879401	0.010714783	-0.21295316	0.63700934	-0.17864073	-0.11165722	0.65033588	-0.15301195	0.064024902	0.96669385	-0.0086871996	-0.019146486	1.0240118	0.19529015	-0.021025679	1.0294207	-0.19481392	0.039417187	0.80431256	-0.0085862589	0.056957729	0.92381586	-0.1230115	0.2973287	0.50949078	0.11573936	0.26506165	0.51541351	0.21820274	0.11086607	0.62290466	0.16575845	0.28056516	0.11191473	0.099935814	0.25883249	0.10248175	0.19388689	0.26980417	0.36285889	0.23042084	0.17809282	0.061713936	0.13731189
18585	185.84	0.41577338	0.066622589	0.13687645	-0.083590019	0.64214508	0.11975507	-0.1670154	0.64125671	0.1593262	-0.30700827	0.57951984	0.010845736	-0.21246977	0.6377359	-0.17819884	-0.11140313	0.65037427	-0.15295105	0.071693008	0.96182245	-0.0085874252	-0.010182834	1.0210345	0.19538892	-0.011929087	1.0262986	-0.19469022	0.043555897	0.80010065	-0.008231699	0.063718468	0.91919946	-0.12259705	0.29671078	0.5094216	0.11561876	0.26452625	0.5153623	0.21810754	0.11045333	0.62285339	0.16566934	0.28050085	0.11183969	0.099879936	0.25878595	0.10245776	0.19385117	0.26927908	0.36284335	0.23033133	0.17808366	0.06168766	0.13731461
18586	185.85	0.41575961	0.066619476	0.13688345	-0.083152977	0.64177441	0.11986891	-0.16632133	0.64145734	0.15947816	-0.30695621	0.58041864	0.010965531	-0.2117128	0.63854816	-0.17773462	-0.11088316	0.65041437	-0.15280817	0.079531609	0.95690765	-0.0085247955	-0.00094690794	1.0179908	0.19545206	-0.0026098065	1.0230939	-0.19462068	0.047945827	0.79594458	-0.0078640432	0.070668961	0.91457074	-0.12217869	0.29616855	0.50935913	0.11562326	0.26403705	0.51529126	0.21813217	0.11008508	0.6227984	0.16566086	0.28043558	0.11176995	0.099834618	0.25872977	0.10242348	0.19380917	0.26876706	0.36280133	0.23032402	0.1780744	0.061659523	0.13731615
18587	185.86	0.41574432	0.066614906	0.13688986	-0.082504257	0.64131348	0.12005186	-0.16542705	0.64167969	0.15968158	-0.30669315	0.58150537	0.011075562	-0.21064601	0.63944421	-0.17725188	-0.1100491	0.65044739	-0.15259465	0.087527115	0.9520058	-0.0085006857	0.0085327806	1.0149182	0.1954749	0.0069144082	1.0198392	-0.19460661	0.052624691	0.79188635	-0.0074911704	0.077811584	0.90997681	-0.12176931	0.29572723	0.50930536	0.11577171	0.26361938	0.51519806	0.21829507	0.10978032	0.6227406	0.16575137	0.28037094	0.1117084	0.099801796	0.25866418	0.10237612	0.1937556	0.26829327	0.3627291	0.23041022	0.17806564	0.061629608	0.13731541
18588	185.87	0.41572775	0.066608414	0.13689545	-0.081609161	0.64077618	0.12030306	-0.1643009	0.64192889	0.1599272	-0.30618265	0.58279291	0.011178354	-0.2092374	0.64042365	-0.17675233	-0.10886303	0.65046796	-0.1523205	0.095668274	0.94717249	-0.0085133715	0.018221624	1.0118575	0.19545512	0.016632084	1.0165673	-0.19464912	0.057632507	0.78795917	-0.0071234369	0.085156281	0.90546368	-0.12138348	0.29541623	0.50926154	0.11607995	0.2633038	0.51507971	0.21861333	0.10956197	0.6226814	0.16595914	0.28030859	0.11165765	0.099782654	0.25859009	0.10231215	0.19368286	0.26788791	0.3626236	0.23059991	0.17805772	0.061597878	0.13731169
18589	185.88	0.4157099	0.066600761	0.13690024	-0.080434624	0.64017749	0.12061774	-0.16290977	0.64221088	0.16020946	-0.30538803	0.58429144	0.011277502	-0.2074612	0.64148566	-0.1762366	-0.10729726	0.65047321	-0.15199445	0.10394806	0.94245697	-0.0085569868	0.028080042	1.0088476	0.19539229	0.026540388	1.0133121	-0.19474844	0.063012035	0.78418469	-0.0067732773	0.092720497	0.90107141	-0.12103625	0.2952706	0.50922864	0.11656165	0.26312454	0.51493329	0.21910133	0.10945782	0.62262244	0.1663022	0.28025076	0.11162034	0.099778046	0.25850854	0.10222761	0.19358228	0.26758624	0.36248206	0.23090152	0.17805086	0.061564102	0.1373051
18590	185.89	0.41569037	0.066594498	0.13690477	-0.07894957	0.63952881	0.12098853	-0.16122006	0.64253003	0.16052409	-0.30427335	0.58600708	0.011377514	-0.20529793	0.64262561	-0.17570261	-0.10533257	0.65045831	-0.1516243	0.11236373	0.93789661	-0.0086213169	0.03806715	1.00592	0.19528764	0.036645741	1.0101043	-0.19490344	0.068800026	0.78056995	-0.0064538279	0.10052702	0.89682898	-0.12074166	0.29532889	0.50920724	0.11722809	0.26311673	0.51475555	0.21976909	0.10950009	0.62256696	0.16679817	0.2802002	0.11159921	0.099789101	0.25842068	0.10211886	0.19344649	0.26742709	0.36230188	0.23132188	0.17804482	0.061527729	0.13729585
18591	185.9	0.41566797	0.066593903	0.1369099	-0.077126266	0.63883563	0.12140699	-0.15919995	0.64288776	0.16086649	-0.30280557	0.58794141	0.011483523	-0.20273236	0.64383362	-0.17514619	-0.1029558	0.65041315	-0.15121689	0.12091762	0.93351196	-0.0086943512	0.048146488	1.0030947	0.19514455	0.046961086	1.0069689	-0.19511076	0.075004555	0.77710583	-0.0061762958	0.10859972	0.89275085	-0.12051009	0.29562939	0.50919699	0.11808614	0.26331259	0.51454291	0.22062021	0.10972231	0.62251862	0.16746277	0.28015942	0.11159695	0.099817482	0.25832773	0.10198419	0.19327357	0.26744943	0.36208072	0.23186429	0.17803873	0.061487587	0.13728391
18592	185.91	0.41564099	0.06660479	0.13691583	-0.074944458	0.63809821	0.12186624	-0.15682469	0.64328424	0.16123256	-0.30095862	0.59009418	0.011601523	-0.19975264	0.6450968	-0.17456317	-0.10015898	0.65032373	-0.15077692	0.12961876	0.92930463	-0.008766243	0.058291977	1.0003788	0.19496861	0.057500393	1.0039208	-0.19536406	0.081588058	0.77376959	-0.0059468908	0.11695821	0.88883698	-0.12034481	0.29620514	0.50919653	0.11913577	0.2637377	0.51429248	0.2216512	0.11015483	0.62248102	0.16830766	0.28012961	0.1116155	0.099865318	0.25823108	0.10182704	0.19307278	0.26768588	0.36181665	0.23252545	0.17803101	0.061441582	0.1372688
18593	185.92	0.41560715	0.066634277	0.13692242	-0.072395798	0.6373161	0.12236268	-0.15408177	0.64371985	0.16161954	-0.29871674	0.59246478	0.011738223	-0.19635123	0.64640521	-0.1739507	-0.096940559	0.65017883	-0.15030583	0.13847945	0.92526086	-0.0088310843	0.068492096	0.99776923	0.19476535	0.06827301	1.0009666	-0.19565392	0.088486572	0.77053589	-0.0057656527	0.12561321	0.88507654	-0.12023966	0.29707944	0.50920325	0.12036857	0.26440796	0.51400269	0.22285095	0.11082004	0.6224577	0.16933881	0.28010962	0.11165482	0.099934464	0.25813318	0.10166083	0.19287195	0.26815717	0.36150775	0.23329482	0.17801941	0.061386551	0.13725002
18594	185.93	0.41556461	0.066690422	0.13692986	-0.069484177	0.63649292	0.12289457	-0.15097151	0.64419763	0.16202368	-0.29607486	0.59505432	0.011898955	-0.19252557	0.64775885	-0.17330804	-0.093306007	0.64997778	-0.14980351	0.14750369	0.92135809	-0.0088864012	0.078749992	0.99525677	0.19453748	0.079278358	0.9981062	-0.19596902	0.095650467	0.76738757	-0.0056286836	0.13456279	0.88145392	-0.12017889	0.29826273	0.50921442	0.12176734	0.26532709	0.51367328	0.22420081	0.11172905	0.62245325	0.17055518	0.28009509	0.11171207	0.100026	0.25803857	0.10151147	0.19272014	0.26886975	0.36115237	0.23415738	0.17800148	0.06131852	0.13722739
